<?xml version="1.0" encoding="UTF-8" standalone="no"?>
<!-- Created with Inkscape (http://www.inkscape.org/) -->

<svg
   width="210mm"
   height="297mm"
   viewBox="0 0 210 297"
   version="1.1"
   id="svg5"
   inkscape:export-filename="/Users/cbarrue/Nextcloud/code/LabORA/pti/static/images/logo.png"
   inkscape:export-xdpi="96"
   inkscape:export-ydpi="96"
   inkscape:version="1.1.2 (b8e25be8, 2022-02-05)"
   sodipodi:docname="logo.svg"
   xmlns:inkscape="http://www.inkscape.org/namespaces/inkscape"
   xmlns:sodipodi="http://sodipodi.sourceforge.net/DTD/sodipodi-0.dtd"
   xmlns="http://www.w3.org/2000/svg"
   xmlns:svg="http://www.w3.org/2000/svg">
  <sodipodi:namedview
     id="namedview7"
     pagecolor="#ffffff"
     bordercolor="#666666"
     borderopacity="1.0"
     inkscape:pageshadow="2"
     inkscape:pageopacity="0.0"
     inkscape:pagecheckerboard="0"
     inkscape:document-units="mm"
     showgrid="false"
     inkscape:zoom="0.46947952"
     inkscape:cx="305.65764"
     inkscape:cy="730.5963"
     inkscape:window-width="1483"
     inkscape:window-height="874"
     inkscape:window-x="1510"
     inkscape:window-y="109"
     inkscape:window-maximized="0"
     inkscape:current-layer="layer1" />
  <defs
     id="defs2" />
  <g
     inkscape:label="Layer 1"
     inkscape:groupmode="layer"
     id="layer1">
    <g
       id="g191"
       transform="translate(-4.5085389,-37.195446)">
      <path
         style="fill:#f7e7e7;stroke-width:0.352778"
         d="m 67.157868,149.20555 c 0,-4.75368 0.04994,-6.69836 0.110969,-4.32152 0.06103,2.37684 0.06103,6.26621 0,8.64305 -0.06103,2.37684 -0.110969,0.43216 -0.110969,-4.32153 z m -17.014695,5.40165 1.305917,-0.15054 0.134193,-1.92176 0.134197,-1.92177 -0.029,2.03024 -0.029,2.03024 -1.411111,0.0421 -1.411111,0.0421 z m 52.447697,-0.72734 c -0.43881,-0.55953 -0.42633,-0.572 0.13319,-0.13319 0.58764,0.46086 0.77452,0.75055 0.48417,0.75055 -0.0733,0 -0.35107,-0.27781 -0.61736,-0.61736 z m 76.9784,-0.64676 c 0.0169,-0.41096 0.10052,-0.49456 0.21314,-0.21314 0.10191,0.25467 0.0894,0.55894 -0.0278,0.67616 -0.11722,0.11723 -0.2006,-0.0911 -0.18528,-0.46302 z m -84.407881,-0.74076 c 0.254659,-0.1019 0.55893,-0.0894 0.676158,0.0279 0.117225,0.11722 -0.09114,0.2006 -0.463021,0.18528 -0.410968,-0.0169 -0.494559,-0.10052 -0.213137,-0.21313 z m 32.102781,0 c 0.25466,-0.1019 0.55893,-0.0894 0.67615,0.0279 0.11723,0.11722 -0.0911,0.2006 -0.46302,0.18528 -0.41096,-0.0169 -0.49456,-0.10052 -0.21313,-0.21313 z m 6.50511,-3.1104 c 0.004,-0.77611 0.0762,-1.05207 0.16054,-0.61324 0.0844,0.43882 0.0812,1.07382 -0.007,1.41111 -0.0883,0.33728 -0.15734,-0.0218 -0.15342,-0.79787 z m -82.176874,-3.175 c 0.0021,-1.16416 0.06784,-1.59788 0.146353,-0.96382 0.07851,0.63407 0.0769,1.58657 -0.0036,2.11667 -0.0805,0.5301 -0.144734,0.0113 -0.142755,-1.15285 z m 83.080094,1.69929 c 0.25466,-0.1019 0.55893,-0.0894 0.67616,0.0279 0.11722,0.11722 -0.0911,0.2006 -0.46302,0.18528 -0.41097,-0.0169 -0.49456,-0.10052 -0.21314,-0.21314 z m 41.34114,0.1078 c 0,-0.0733 0.27782,-0.35107 0.61737,-0.61736 0.55952,-0.43881 0.572,-0.42634 0.13319,0.13319 -0.46086,0.58764 -0.75056,0.77452 -0.75056,0.48417 z m -57.23819,-1.15878 c 0.24254,-0.0979 0.63941,-0.0979 0.88195,0 0.24253,0.0979 0.0441,0.17794 -0.44098,0.17794 -0.48507,0 -0.6835,-0.0801 -0.44097,-0.17794 z m 47.07641,-0.64831 c 0.007,-0.58208 0.0863,-0.7775 0.1757,-0.43425 0.0894,0.34324 0.0836,0.81949 -0.0131,1.05833 -0.0966,0.23884 -0.1698,-0.042 -0.16261,-0.62408 z m 28.92778,0 c 0.007,-0.58208 0.0863,-0.7775 0.1757,-0.43425 0.0894,0.34324 0.0836,0.81949 -0.0131,1.05833 -0.0966,0.23884 -0.1698,-0.042 -0.16261,-0.62408 z m -86.1187,-0.0294 c 0.0169,-0.41097 0.10052,-0.49456 0.21314,-0.21314 0.1019,0.25466 0.0894,0.55893 -0.0278,0.67616 -0.11722,0.11722 -0.2006,-0.0911 -0.18528,-0.46302 z m -29.633331,-0.35278 c 0.01693,-0.41097 0.10052,-0.49456 0.213134,-0.21314 0.101907,0.25466 0.08938,0.55893 -0.02783,0.67616 -0.117228,0.11722 -0.200604,-0.0911 -0.185286,-0.46302 z m -42.096602,-2.4973 c 0.242535,-0.0979 0.63941,-0.0979 0.881945,0 0.242534,0.0979 0.0441,0.17794 -0.440972,0.17794 -0.48507,0 -0.683507,-0.0801 -0.440973,-0.17794 z M 170.81094,141.9736 c 0.004,-0.77611 0.0762,-1.05207 0.16054,-0.61325 0.0844,0.43883 0.0812,1.07383 -0.007,1.41111 -0.0883,0.33729 -0.15733,-0.0217 -0.15342,-0.79786 z m -3.18212,-0.17639 c 0,-0.6791 0.0726,-0.95691 0.16134,-0.61736 0.0887,0.33955 0.0887,0.89517 0,1.23472 -0.0887,0.33955 -0.16134,0.0617 -0.16134,-0.61736 z m -79.401141,0 c 0,-0.48507 0.08007,-0.68351 0.177938,-0.44097 0.09786,0.24253 0.09786,0.63941 0,0.88194 -0.09787,0.24254 -0.177938,0.0441 -0.177938,-0.44097 z"
         id="path205" />
      <path
         style="fill:#f3d6d6;stroke-width:0.352778"
         d="m 31.513948,147.97083 c 5.65e-4,-2.71639 0.05593,-3.781 0.123061,-2.36581 0.06713,1.41519 0.06668,3.63769 -9.88e-4,4.93889 -0.0677,1.30119 -0.122623,0.14331 -0.122073,-2.57308 z m 47.612985,1.5875 c 0,-1.84326 0.05946,-2.59732 0.13213,-1.67569 0.07267,0.92163 0.07267,2.42975 0,3.35139 -0.07267,0.92163 -0.13213,0.16757 -0.13213,-1.6757 z m -63.487984,-1.94028 c 5.5e-4,-2.71638 0.05593,-3.781 0.12306,-2.36581 0.06713,1.41519 0.06668,3.63769 -0.001,4.93889 -0.06768,1.3012 -0.122609,0.14331 -0.122058,-2.57308 z m 24.694444,0 c 5.64e-4,-2.71638 0.05593,-3.781 0.12306,-2.36581 0.06713,1.41519 0.06668,3.63769 -9.88e-4,4.93889 -0.0677,1.3012 -0.122623,0.14331 -0.122072,-2.57308 z m 35.982332,-0.17638 c 0,-2.61938 0.05553,-3.69094 0.123412,-2.38125 0.06788,1.30968 0.06788,3.45281 0,4.7625 -0.06788,1.30968 -0.123412,0.23812 -0.123412,-2.38125 z m -20.870235,2.11666 c 0,-0.67909 0.0726,-0.95691 0.161336,-0.61736 0.08873,0.33955 0.08873,0.89517 0,1.23472 -0.08873,0.33955 -0.161336,0.0617 -0.161336,-0.61736 z m 84.67379,-0.17639 c 0.004,-0.77611 0.0762,-1.05207 0.16054,-0.61324 0.0844,0.43882 0.0812,1.07382 -0.007,1.41111 -0.0883,0.33728 -0.15733,-0.0218 -0.15341,-0.79787 z m -50.127712,0.17639 c 0,-0.48507 0.08007,-0.6835 0.177937,-0.44097 0.09786,0.24253 0.09786,0.63941 0,0.88194 -0.09786,0.24254 -0.177937,0.0441 -0.177937,-0.44097 z m 32.102782,0 c 0,-0.48507 0.0801,-0.6835 0.17793,-0.44097 0.0979,0.24253 0.0979,0.63941 0,0.88194 -0.0979,0.24254 -0.17793,0.0441 -0.17793,-0.44097 z m 34.16374,-3.66097 c 0,-0.0733 0.27781,-0.35107 0.61736,-0.61736 0.55953,-0.43881 0.572,-0.42633 0.1332,0.13319 -0.46086,0.58764 -0.75056,0.77452 -0.75056,0.48417 z m 28.92778,0 c 0,-0.0733 0.27781,-0.35107 0.61736,-0.61736 0.55952,-0.43881 0.572,-0.42633 0.13319,0.13319 -0.46086,0.58764 -0.75055,0.77452 -0.75055,0.48417 z m -22.40139,-0.92514 c 0.11991,-0.19403 0.28803,-0.35278 0.3736,-0.35278 0.0856,0 0.15556,0.15875 0.15556,0.35278 0,0.19403 -0.16812,0.35278 -0.37359,0.35278 -0.20548,0 -0.27549,-0.15875 -0.15557,-0.35278 z m 28.92778,0 c 0.11991,-0.19403 0.28803,-0.35278 0.37359,-0.35278 0.0856,0 0.15557,0.15875 0.15557,0.35278 0,0.19403 -0.16812,0.35278 -0.3736,0.35278 -0.20548,0 -0.27548,-0.15875 -0.15556,-0.35278 z m -153.348093,-1.6521 c 0.254661,-0.1019 0.558932,-0.0894 0.676158,0.0279 0.117224,0.11723 -0.09114,0.20061 -0.463021,0.18529 -0.410966,-0.0169 -0.494559,-0.10052 -0.213137,-0.21314 z m -11.493675,-1.5229 c 0,-0.6791 0.0726,-0.95691 0.161333,-0.61736 0.08873,0.33955 0.08873,0.89517 0,1.23472 -0.08873,0.33955 -0.161333,0.0617 -0.161333,-0.61736 z"
         id="path203" />
      <path
         style="fill:#f0c9c9;stroke-width:0.352778"
         d="m 79.027609,153.2331 c 0.01693,-0.41096 0.10052,-0.49456 0.213134,-0.21314 0.101907,0.25467 0.08938,0.55894 -0.02783,0.67616 -0.117228,0.11723 -0.200604,-0.0911 -0.185286,-0.46302 z m -63.500001,-0.35278 c 0.01693,-0.41096 0.100521,-0.49456 0.213137,-0.21313 0.101907,0.25466 0.08937,0.55893 -0.02785,0.67615 -0.117225,0.11723 -0.200603,-0.0911 -0.185287,-0.46302 z m 24.694444,0 c 0.01693,-0.41096 0.100521,-0.49456 0.213137,-0.21313 0.101907,0.25466 0.08937,0.55893 -0.02785,0.67615 -0.117225,0.11723 -0.200604,-0.0911 -0.185286,-0.46302 z m 36.011183,-0.14699 c 0,-0.48507 0.08007,-0.6835 0.177937,-0.44097 0.09786,0.24253 0.09786,0.63941 0,0.88194 -0.09786,0.24254 -0.177937,0.0441 -0.177937,-0.44097 z m -57.810356,-1.5875 c 0.0026,-0.97014 0.07116,-1.32514 0.152247,-0.7889 0.08109,0.53625 0.07892,1.33 -0.0048,1.76389 -0.08374,0.4339 -0.15008,-0.005 -0.147432,-0.97499 z m 93.151041,-1.5875 c 0,-1.45521 0.0623,-2.05052 0.13838,-1.32291 0.0761,0.7276 0.0761,1.91822 0,2.64583 -0.0761,0.7276 -0.13838,0.13229 -0.13838,-1.32292 z m -93.142625,-4.40972 c 0.002,-1.16417 0.06784,-1.59789 0.146354,-0.96382 0.07851,0.63406 0.07689,1.58656 -0.0036,2.11667 -0.08049,0.5301 -0.144733,0.0113 -0.142752,-1.15285 z m 21.790757,-2.85162 c 0.01693,-0.41097 0.100521,-0.49456 0.213137,-0.21314 0.101907,0.25466 0.08937,0.55894 -0.02785,0.67616 -0.117225,0.11723 -0.200604,-0.0911 -0.185286,-0.46302 z m 35.983334,0 c 0.01693,-0.41097 0.100521,-0.49456 0.213135,-0.21314 0.101907,0.25466 0.08938,0.55894 -0.02783,0.67616 -0.117228,0.11723 -0.200603,-0.0911 -0.185286,-0.46302 z"
         id="path201" />
      <path
         style="fill:#eec2c2;stroke-width:0.352778"
         d="m 111.48316,152.52755 c 0.0169,-0.41097 0.10052,-0.49456 0.21314,-0.21314 0.1019,0.25466 0.0894,0.55893 -0.0278,0.67616 -0.11722,0.11722 -0.2006,-0.0911 -0.18528,-0.46302 z m -26.105552,-2.82223 c 0.01693,-0.41096 0.100521,-0.49456 0.213135,-0.21313 0.101907,0.25466 0.08938,0.55893 -0.02783,0.67615 -0.117229,0.11723 -0.200604,-0.0911 -0.185286,-0.46302 z m 8.703399,-1.46052 c 0.63059,-0.0782 1.662465,-0.0782 2.293055,0 0.63059,0.0783 0.114653,0.14228 -1.146528,0.14228 -1.26118,0 -1.777118,-0.064 -1.146527,-0.14228 z"
         id="path199" />
      <path
         style="fill:#ecb7b7;stroke-width:0.352778"
         d="m 160.0725,155.66734 c 0.25466,-0.1019 0.55893,-0.0894 0.67616,0.0279 0.11722,0.11722 -0.0911,0.2006 -0.46302,0.18528 -0.41097,-0.0169 -0.49456,-0.10052 -0.21314,-0.21313 z m 28.92778,0 c 0.25466,-0.1019 0.55893,-0.0894 0.67615,0.0279 0.11723,0.11722 -0.0911,0.2006 -0.46302,0.18528 -0.41096,-0.0169 -0.49456,-0.10052 -0.21313,-0.21313 z m -139.877319,-3.1104 c 0.002,-1.16416 0.06784,-1.59788 0.146354,-0.96382 0.07852,0.63407 0.0769,1.58657 -0.0036,2.11667 -0.0805,0.5301 -0.144736,0.0113 -0.142756,-1.15285 z m 133.363949,-1.94027 c 0,-1.64924 0.0608,-2.32393 0.13504,-1.49931 0.0743,0.82462 0.0743,2.17399 0,2.99861 -0.0743,0.82462 -0.13504,0.14993 -0.13504,-1.4993 z M 43.159225,147.61805 c 4.58e-4,-3.10444 0.05442,-4.32721 0.119932,-2.71727 0.06552,1.60994 0.06515,4.14994 -8.12e-4,5.64444 -0.06596,1.4945 -0.119567,0.17728 -0.11912,-2.92717 z m 73.331055,3.35139 c 0,-0.87312 0.0688,-1.23031 0.15289,-0.79375 0.0841,0.43657 0.0841,1.15094 0,1.5875 -0.0841,0.43657 -0.15289,0.0794 -0.15289,-0.79375 z m -11.98481,-2.11666 c 0,-1.06716 0.0661,-1.50372 0.14696,-0.97014 0.0808,0.53357 0.0808,1.4067 0,1.94028 -0.0808,0.53357 -0.14696,0.097 -0.14696,-0.97014 z m 58.48325,0.14699 c 0.0169,-0.41097 0.10052,-0.49456 0.21313,-0.21314 0.10191,0.25466 0.0894,0.55893 -0.0278,0.67616 -0.11723,0.11722 -0.2006,-0.0911 -0.18529,-0.46302 z m 28.92778,0 c 0.0169,-0.41097 0.10052,-0.49456 0.21313,-0.21314 0.10191,0.25466 0.0894,0.55893 -0.0278,0.67616 -0.11723,0.11722 -0.20061,-0.0911 -0.18529,-0.46302 z M 85.377608,148.64699 c 0.01693,-0.41097 0.100521,-0.49456 0.213135,-0.21314 0.101907,0.25466 0.08938,0.55894 -0.02783,0.67616 -0.117229,0.11723 -0.200604,-0.0911 -0.185286,-0.46302 z m -36.254647,-2.44005 c 0.002,-1.16416 0.06784,-1.59788 0.146354,-0.96382 0.07852,0.63407 0.0769,1.58657 -0.0036,2.11667 -0.0805,0.5301 -0.144736,0.0113 -0.142756,-1.15285 z m 67.299089,-1.08773 c 0.0169,-0.41096 0.10052,-0.49456 0.21314,-0.21313 0.1019,0.25466 0.0894,0.55893 -0.0278,0.67615 -0.11722,0.11723 -0.2006,-0.0911 -0.18528,-0.46302 z m 58.91389,0 c 0.0169,-0.41096 0.10052,-0.49456 0.21313,-0.21313 0.10191,0.25466 0.0894,0.55893 -0.0278,0.67615 -0.11722,0.11723 -0.2006,-0.0911 -0.18529,-0.46302 z m -6.81882,-2.15984 c 0.43656,-0.0841 1.15093,-0.0841 1.5875,0 0.43656,0.0841 0.0794,0.15288 -0.79375,0.15288 -0.87313,0 -1.23032,-0.0688 -0.79375,-0.15288 z"
         id="path197" />
      <path
         style="fill:#e8a8a8;stroke-width:0.352778"
         d="m 64.688423,149.20555 c 0,-4.75368 0.04994,-6.69836 0.11097,-4.32152 0.06103,2.37684 0.06103,6.26621 0,8.64305 -0.06103,2.37684 -0.11097,0.43216 -0.11097,-4.32153 z m 94.325747,8.22568 c 0.25466,-0.1019 0.55893,-0.0894 0.67615,0.0279 0.11723,0.11722 -0.0911,0.2006 -0.46302,0.18528 -0.41097,-0.0169 -0.49456,-0.10052 -0.21313,-0.21314 z m 28.92777,0 c 0.25466,-0.1019 0.55894,-0.0894 0.67616,0.0279 0.11723,0.11722 -0.0911,0.2006 -0.46302,0.18528 -0.41097,-0.0169 -0.49456,-0.10052 -0.21314,-0.21314 z M 43.044275,153.58588 c 0.01693,-0.41097 0.10052,-0.49456 0.213136,-0.21314 0.101908,0.25466 0.08937,0.55893 -0.02785,0.67616 -0.117226,0.11722 -0.200604,-0.0911 -0.185286,-0.46302 z m 116.675445,0.31758 c 0.25466,-0.10191 0.55894,-0.0894 0.67616,0.0279 0.11722,0.11722 -0.0911,0.2006 -0.46302,0.18528 -0.41097,-0.0169 -0.49456,-0.10052 -0.21314,-0.21313 z m 28.92778,0 c 0.25466,-0.10191 0.55893,-0.0894 0.67616,0.0279 0.11722,0.11722 -0.0911,0.2006 -0.46302,0.18528 -0.41097,-0.0169 -0.49456,-0.10052 -0.21314,-0.21313 z M 34.338968,148.5 c 0,-3.00743 0.05411,-4.23774 0.120234,-2.73403 0.06613,1.50372 0.06613,3.96434 0,5.46806 -0.06613,1.50371 -0.120234,0.2734 -0.120234,-2.73403 z m 82.083082,4.38032 c 0.0169,-0.41096 0.10052,-0.49456 0.21314,-0.21313 0.1019,0.25466 0.0894,0.55893 -0.0278,0.67615 -0.11722,0.11723 -0.2006,-0.0911 -0.18528,-0.46302 z m 59.0018,-2.08727 c 0.001,-1.35819 0.0653,-1.87059 0.1417,-1.13865 0.0764,0.73193 0.0751,1.84318 -0.003,2.46944 -0.078,0.62626 -0.14044,0.0274 -0.13887,-1.33079 z m -61.37387,-1.41111 c -0.001,-1.74625 0.0586,-2.5051 0.13256,-1.68634 0.074,0.81877 0.0749,2.24752 0.002,3.175 -0.0731,0.92749 -0.13361,0.25759 -0.13468,-1.48866 z m 53.975,0 c -0.001,-1.74625 0.0586,-2.5051 0.13256,-1.68634 0.074,0.81877 0.0749,2.24752 0.002,3.175 -0.0731,0.92749 -0.13361,0.25759 -0.13468,-1.48866 z m 4.93889,0 c -10e-4,-1.74625 0.0586,-2.5051 0.13256,-1.68634 0.074,0.81877 0.0749,2.24752 0.002,3.175 -0.0731,0.92749 -0.13361,0.25759 -0.13468,-1.48866 z m -2.47606,0.17639 c 0,-1.45521 0.0623,-2.05052 0.13838,-1.32291 0.0761,0.7276 0.0761,1.91822 0,2.64583 -0.0761,0.7276 -0.13838,0.13229 -0.13838,-1.32292 z m -125.266525,-0.0882 0.08819,-1.14653 2.030239,-0.029 2.030238,-0.029 -1.920958,0.13417 c -1.80737,0.12624 -1.932636,0.19575 -2.118433,1.17553 -0.189287,0.99818 -0.193818,0.99382 -0.10928,-0.10517 z M 146.82128,148.6001 c 0.53358,-0.0808 1.40671,-0.0808 1.94028,0 0.53358,0.0808 0.097,0.14696 -0.97014,0.14696 -1.06715,0 -1.50371,-0.0661 -0.97014,-0.14696 z m -94.361732,-0.35577 c 0.634065,-0.0785 1.586565,-0.0769 2.116666,0.004 0.530102,0.0805 0.01132,0.14473 -1.152846,0.14275 -1.164166,-0.002 -1.597886,-0.0678 -0.96382,-0.14635 z m 33.019054,-3.4485 c 0.0011,-1.94028 0.06016,-2.68902 0.131646,-1.66387 0.07149,1.02515 0.07074,2.61265 -0.0018,3.52778 -0.07231,0.91513 -0.1308,0.0764 -0.129882,-1.86391 z m -66.358022,2.39269 c 0.536245,-0.0811 1.329994,-0.0789 1.763889,0.005 0.433895,0.0837 -0.0048,0.15008 -0.974989,0.14744 -0.970139,-0.003 -1.325144,-0.0712 -0.7889,-0.15225 z m 85.33488,-0.80519 c 0,-0.48507 0.0801,-0.6835 0.17793,-0.44097 0.0979,0.24253 0.0979,0.63941 0,0.88194 -0.0979,0.24254 -0.17793,0.0441 -0.17793,-0.44097 z m 7.0277,-1.26412 c 0.0169,-0.41096 0.10052,-0.49456 0.21314,-0.21313 0.1019,0.25466 0.0894,0.55893 -0.0278,0.67615 -0.11722,0.11723 -0.2006,-0.0911 -0.18528,-0.46302 z m -92.191041,-2.15984 c 0.436562,-0.0841 1.150937,-0.0841 1.5875,0 0.436562,0.0841 0.07937,0.15288 -0.79375,0.15288 -0.873125,0 -1.230313,-0.0688 -0.79375,-0.15288 z m 19.579936,-0.98576 c 0.0039,-0.77611 0.07616,-1.05207 0.160542,-0.61325 0.08438,0.43883 0.08118,1.07383 -0.0071,1.41111 -0.0883,0.33729 -0.157337,-0.0217 -0.153422,-0.79786 z m 4.17222,-0.38218 c 0.01693,-0.41096 0.10052,-0.49455 0.213136,-0.21313 0.101908,0.25466 0.08937,0.55893 -0.02785,0.67616 -0.117226,0.11722 -0.200604,-0.0911 -0.185286,-0.46303 z"
         id="path195" />
      <path
         style="fill:#e49191;stroke-width:0.352778"
         d="m 64.888646,149.20555 v -8.46666 h 1.058333 1.058333 v 8.46666 8.46667 h -1.058333 -1.058333 z m 93.816744,8.13411 c -0.69127,-0.13225 -1.61963,-0.49455 -2.06303,-0.80511 l -0.80616,-0.56467 0.85792,-0.56213 c 0.7854,-0.51461 0.95397,-0.51421 1.99438,0.005 2.07674,1.03601 4.62514,-0.11707 4.62514,-2.09275 0,-0.62852 -0.0509,-0.63425 -0.86953,-0.0979 -1.13913,0.74638 -4.01741,0.74325 -5.08646,-0.006 -2.38656,-1.67161 -2.30697,-6.50007 0.13351,-8.09914 1.19847,-0.78527 3.72854,-0.79521 4.91273,-0.0193 0.78906,0.51701 0.90975,0.52481 0.90975,0.0588 0,-0.37887 0.36407,-0.5373 1.23473,-0.5373 h 1.23472 l -0.0199,4.49792 c -0.0111,2.51408 -0.20562,5.03482 -0.44097,5.71522 -0.68792,1.9888 -3.58606,3.08689 -6.61681,2.50708 z m 3.59102,-5.97978 c 1.12076,-0.90754 1.15231,-3.23438 0.0587,-4.32801 -1.78251,-1.7825 -4.33311,-0.48 -4.33311,2.21277 0,2.47238 2.37931,3.64981 4.27443,2.11524 z m 25.33676,5.97978 c -0.69127,-0.13225 -1.61963,-0.49455 -2.06303,-0.80511 l -0.80617,-0.56467 0.85792,-0.56213 c 0.78541,-0.51461 0.95397,-0.51421 1.99439,0.005 2.07674,1.03601 4.62514,-0.11707 4.62514,-2.09275 0,-0.62852 -0.051,-0.63425 -0.86953,-0.0979 -1.13913,0.74638 -4.01742,0.74325 -5.08646,-0.006 -2.38656,-1.67161 -2.30697,-6.50007 0.1335,-8.09914 1.19848,-0.78527 3.72855,-0.79521 4.91273,-0.0193 0.78906,0.51701 0.90976,0.52481 0.90976,0.0588 0,-0.37887 0.36407,-0.5373 1.23472,-0.5373 h 1.23473 l -0.0199,4.49792 c -0.0111,2.51408 -0.20562,5.03482 -0.44097,5.71522 -0.68792,1.9888 -3.58607,3.08689 -6.61682,2.50708 z m 3.59101,-5.97978 c 1.12076,-0.90754 1.15231,-3.23438 0.0587,-4.32801 -1.7825,-1.7825 -4.3331,-0.48 -4.3331,2.21277 0,2.47238 2.37931,3.64981 4.27442,2.11524 z m -97.40268,3.13223 c -3.388904,-0.80629 -4.661144,-5.73951 -2.191025,-8.49588 1.674099,-1.86811 5.379804,-2.05178 6.925969,-0.34329 0.668627,0.73882 1.569446,2.99503 1.594496,3.99359 0.0138,0.54975 -0.390194,0.61736 -3.688683,0.61736 -4.009337,0 -4.483552,0.27895 -2.998612,1.76389 0.92086,0.92086 2.729918,0.91526 3.716408,-0.0115 0.629342,-0.59124 0.929856,-0.65373 1.712631,-0.35612 0.811886,0.30868 0.894701,0.46307 0.571923,1.06619 -0.754034,1.40892 -3.513624,2.27241 -5.643107,1.76576 z m 3.875479,-6.26639 c 0,-0.15086 -0.247128,-0.62711 -0.549169,-1.05834 -0.717924,-1.02497 -2.695547,-1.06711 -3.684165,-0.0785 -1.162141,1.16214 -0.850928,1.41111 1.763889,1.41111 1.358195,0 2.469445,-0.12343 2.469445,-0.27428 z m 6.350001,6.1549 c -1.62894,-0.54429 -2.07103,-1.87716 -2.09676,-6.32159 l -0.0199,-3.43959 h 1.33922 1.33923 l -0.14482,3.31108 c -0.13253,3.03016 -0.08,3.37588 0.6191,4.07499 0.87105,0.87104 1.83068,0.73753 3.10908,-0.43255 0.70831,-0.64831 0.79375,-1.06164 0.79375,-3.84001 v -3.11351 h 1.23472 1.23472 v 4.93889 4.93889 h -1.23472 c -0.86234,0 -1.23472,-0.15959 -1.23472,-0.52917 0,-0.65341 -0.16855,-0.65951 -1.15894,-0.042 -1.21524,0.75775 -2.43391,0.90429 -3.77995,0.45453 z m 21.8773,0.10713 c -4.70031,-1.10161 -4.56793,-8.80584 0.16958,-9.86938 3.65245,-0.81996 6.52995,1.3891 6.5268,5.01064 -0.003,3.50919 -3.04308,5.71496 -6.69638,4.85874 z m 3.50895,-2.52649 c 0.50881,-0.54614 0.7193,-1.24932 0.7193,-2.40293 0,-2.06562 -0.92033,-3.175 -2.63397,-3.175 -1.54633,0 -2.65769,1.32768 -2.65769,3.175 0,2.77194 2.83872,4.26378 4.57236,2.40293 z M 15.852535,147.57274 v -6.92448 l 3.845956,0.15846 c 5.20243,0.21435 6.443396,1.05057 6.443396,4.34189 0,2.89646 -1.338498,3.96868 -5.376926,4.30724 l -2.442981,0.20481 v 2.41828 2.41828 h -1.234722 -1.234723 z m 7.305272,-1.05364 c 0.586352,-0.80188 0.581362,-1.94592 -0.01203,-2.75743 -0.352735,-0.48239 -0.982119,-0.65091 -2.557639,-0.68479 l -2.08977,-0.0449 -0.106343,2.25551 -0.106343,2.2555 2.208143,-0.20023 c 1.535007,-0.13919 2.347102,-0.39026 2.663981,-0.82362 z m 8.569728,2.35051 V 143.242 l -2.204861,-0.10503 -2.204861,-0.10503 -0.104703,-1.23472 -0.104702,-1.23472 5.837341,0.10465 5.837342,0.10465 v 1.21827 1.21826 H 36.46576 34.148429 l 0.11247,5.64493 0.112469,5.64492 -1.322916,-4.8e-4 -1.322917,-4.8e-4 z m 8.819444,-1.25156 v -6.87916 h 1.322917 1.322917 v 6.87916 6.87917 h -1.322917 -1.322917 z m 8.819445,4.93889 v -1.94027 h -1.940278 c -1.920679,0 -1.940278,-0.0107 -1.940278,-1.05834 0,-1.04764 0.0196,-1.05833 1.940278,-1.05833 h 1.940278 v -2.11667 -2.11666 h 1.058333 1.058333 v 2.11666 2.11667 h 1.940278 c 1.920678,0 1.940278,0.0107 1.940278,1.05833 0,1.04765 -0.01961,1.05834 -1.940278,1.05834 H 51.48309 v 1.94027 c 0,1.92068 -0.01069,1.94028 -1.058333,1.94028 -1.047643,0 -1.058333,-0.0196 -1.058333,-1.94028 z m 27.163888,-4.93889 v -6.87916 l 1.322917,0.0162 c 1.303143,0.0159 1.367737,0.0849 4.321528,4.61373 1.649236,2.52866 3.130292,4.68169 3.291236,4.78449 0.160945,0.10281 0.24032,-1.9736 0.176389,-4.61423 l -0.116236,-4.80115 1.322916,5e-4 1.322917,5e-4 v 6.89945 6.89945 l -1.452093,-0.10848 c -1.446414,-0.10805 -1.464011,-0.12684 -4.497917,-4.80262 l -3.045823,-4.69414 -0.09815,4.78234 -0.09815,4.78233 h -1.224767 -1.224767 z m 37.570838,1.94039 v -4.93881 l 1.14652,-9e-5 c 0.784,-7e-5 1.14653,0.16723 1.14653,0.52907 0,0.66816 0.17285,0.66332 1.23811,-0.0347 0.79572,-0.52138 3.12296,-0.83942 3.48242,-0.47592 0.0858,0.0868 0.0722,0.59437 -0.0303,1.12794 -0.16828,0.876 -0.33112,0.97014 -1.67806,0.97014 -2.34967,0 -2.83578,0.79269 -2.83578,4.62424 v 3.13714 l -1.23472,-1.2e-4 -1.23472,-1.1e-4 z m 27.16363,4.32142 c 0.95543,-2.34421 4.20256,-11.0589 4.46918,-11.99444 0.31013,-1.08826 0.41253,-1.14653 2.01477,-1.14653 h 1.68804 l 2.40153,6.43819 c 1.32084,3.54101 2.47574,6.63663 2.56646,6.87917 0.117,0.31283 -0.30734,0.44097 -1.46032,0.44097 -1.34638,0 -1.62524,-0.11203 -1.62524,-0.65291 0,-0.3591 -0.17428,-1.15285 -0.38729,-1.76389 l -0.38729,-1.11098 h -2.75511 -2.75511 l -0.45207,1.76389 -0.45207,1.76389 h -1.55855 c -1.34501,0 -1.52408,-0.0846 -1.30693,-0.61736 z m 8.29053,-5.44303 c 0,-0.68505 -1.53278,-5.2285 -1.76389,-5.2285 -0.23111,0 -1.76389,4.54345 -1.76389,5.2285 0,0.26395 0.64457,0.41595 1.76389,0.41595 1.11932,0 1.76389,-0.152 1.76389,-0.41595 z m 18.52083,1.12161 v -4.93881 l 1.23757,-9e-5 1.23757,-1e-4 v 4.93889 4.93889 l -1.23757,2e-5 -1.23757,2e-5 z m 4.93889,0 v -4.93881 l 1.14653,-9e-5 c 0.78399,-7e-5 1.14653,0.16723 1.14653,0.52907 0,0.66765 0.17302,0.66321 1.23355,-0.0317 1.31656,-0.86265 3.93548,-0.7766 4.87405,0.16015 0.68357,0.68223 0.79168,1.25198 0.94795,4.99584 l 0.17639,4.22578 -1.32291,-7.4e-4 -1.32292,-7.5e-4 v -3.69175 c 0,-3.28906 -0.0744,-3.7316 -0.68246,-4.057 -0.86666,-0.46382 -2.04463,-0.0264 -3.16106,1.17394 -0.78697,0.84608 -0.8316,1.10268 -0.65072,3.74159 l 0.19419,2.83322 -1.28956,2e-5 -1.28956,2e-5 z m -38.98194,-0.15242 v -1.2588 h 2.99861 2.99861 v 1.16491 1.16492 l -2.99861,0.0939 -2.99861,0.0939 z m 33.86667,-7.6088 c 0,-0.99954 0.0784,-1.05833 1.41111,-1.05833 1.33271,0 1.41111,0.0588 1.41111,1.05833 0,0.99954 -0.0784,1.05833 -1.41111,1.05833 -1.33272,0 -1.41111,-0.0588 -1.41111,-1.05833 z"
         id="path193" />
    </g>
  </g>
</svg>
